<?xml version="1.0" standalone="no"?><!DOCTYPE svg PUBLIC "-//W3C//DTD SVG 1.1//EN" "http://www.w3.org/Graphics/SVG/1.1/DTD/svg11.dtd"><svg class="icon" width="200px" height="200.00px" viewBox="0 0 1024 1024" version="1.1" xmlns="http://www.w3.org/2000/svg"><path d="M538.88 512 774.4 276.48c7.68-7.68 7.68-19.84 0-26.88-7.68-7.68-19.84-7.68-26.88 0L512 485.12 276.48 249.6c-7.68-7.68-19.84-7.68-26.88 0-7.68 7.68-7.68 19.84 0 26.88L485.12 512 249.6 747.52c-7.68 7.68-7.68 19.84 0 26.88 3.84 3.84 8.96 5.76 13.44 5.76s9.6-1.92 13.44-5.76L512 538.88l235.52 235.52c3.84 3.84 8.96 5.76 13.44 5.76s9.6-1.92 13.44-5.76c7.68-7.68 7.68-19.84 0-26.88L538.88 512z" /></svg>